<svg width="1868.9" height="436.70000000000005" xmlns="http://www.w3.org/2000/svg" xmlns:xlink="http://www.w3.org/1999/xlink"><line x1="391.375" y1="7.5" x2="57.5" y2="32.0" style="stroke:black; stroke-width:1px;" />
<line x1="57.5" y1="39.5" x2="24.0" y2="64.0" style="stroke:black; stroke-width:1px;" />
<line x1="57.5" y1="39.5" x2="91.0" y2="64.0" style="stroke:black; stroke-width:1px;" />
<line x1="391.375" y1="7.5" x2="268.25" y2="32.0" style="stroke:black; stroke-width:1px;" />
<line x1="268.25" y1="39.5" x2="168.5" y2="64.0" style="stroke:black; stroke-width:1px;" />
<line x1="268.25" y1="39.5" x2="251.0" y2="64.0" style="stroke:black; stroke-width:1px;" />
<line x1="251.0" y1="71.5" x2="218.75" y2="96.0" style="stroke:black; stroke-width:1px;" />
<line x1="251.0" y1="71.5" x2="283.25" y2="96.0" style="stroke:black; stroke-width:1px;" />
<line x1="283.25" y1="103.5" x2="253.25" y2="128.0" style="stroke:black; stroke-width:1px;" />
<line x1="283.25" y1="103.5" x2="280.25" y2="128.0" style="stroke:black; stroke-width:1px;" />
<line x1="283.25" y1="103.5" x2="313.25" y2="128.0" style="stroke:black; stroke-width:1px;" />
<line x1="268.25" y1="39.5" x2="368.0" y2="64.0" style="stroke:black; stroke-width:1px;" />
<line x1="368.0" y1="71.5" x2="339.75" y2="96.0" style="stroke:black; stroke-width:1px;" />
<line x1="368.0" y1="71.5" x2="396.25" y2="96.0" style="stroke:black; stroke-width:1px;" />
<line x1="396.25" y1="103.5" x2="366.25" y2="128.0" style="stroke:black; stroke-width:1px;" />
<line x1="396.25" y1="103.5" x2="393.25" y2="128.0" style="stroke:black; stroke-width:1px;" />
<line x1="396.25" y1="103.5" x2="426.25" y2="128.0" style="stroke:black; stroke-width:1px;" />
<line x1="391.375" y1="7.5" x2="521.875" y2="32.0" style="stroke:black; stroke-width:1px;" />
<line x1="521.875" y1="39.5" x2="437.0" y2="64.0" style="stroke:black; stroke-width:1px;" />
<line x1="521.875" y1="39.5" x2="489.0" y2="64.0" style="stroke:black; stroke-width:1px;" />
<line x1="489.0" y1="71.5" x2="462.5" y2="96.0" style="stroke:black; stroke-width:1px;" />
<line x1="489.0" y1="71.5" x2="515.5" y2="96.0" style="stroke:black; stroke-width:1px;" />
<line x1="521.875" y1="39.5" x2="606.75" y2="64.0" style="stroke:black; stroke-width:1px;" />
<line x1="606.75" y1="71.5" x2="578.5" y2="96.0" style="stroke:black; stroke-width:1px;" />
<line x1="606.75" y1="71.5" x2="635.0" y2="96.0" style="stroke:black; stroke-width:1px;" />
<line x1="391.375" y1="7.5" x2="725.25" y2="32.0" style="stroke:black; stroke-width:1px;" />
<line x1="725.25" y1="39.5" x2="680.25" y2="64.0" style="stroke:black; stroke-width:1px;" />
<line x1="725.25" y1="39.5" x2="770.25" y2="64.0" style="stroke:black; stroke-width:1px;" />
<rect x="638.75" y="64.0" width="83.0" height="15.0" style="fill:orange; stroke:rgb(0,0,0);" rx="1"/>
<text x="640" y="73" style="font-family:sans-serif;font-size:10px;">
Purpose·of·Trip:
</text>
<rect x="377.375" y="0.0" width="28.0" height="15.0" style="fill:orange; stroke:rgb(0,0,0);" rx="1"/>
<text x="379" y="9" style="font-family:sans-serif;font-size:10px;">
trip:1
</text>
<rect x="581.75" y="64.0" width="50.0" height="15.0" style="fill:orange; stroke:rgb(0,0,0);" rx="1"/>
<text x="583" y="73" style="font-family:sans-serif;font-size:10px;">
country:1
</text>
<rect x="412.25" y="128.0" width="28.0" height="15.0" style="fill:orange; stroke:rgb(0,0,0);" rx="1"/>
<text x="414" y="137" style="font-family:sans-serif;font-size:10px;">
2024
</text>
<rect x="134.0" y="64.0" width="69.0" height="15.0" style="fill:orange; stroke:rgb(0,0,0);" rx="1"/>
<text x="136" y="73" style="font-family:sans-serif;font-size:10px;">
Travel·Dates:
</text>
<rect x="266.25" y="96.0" width="34.0" height="15.0" style="fill:orange; stroke:rgb(0,0,0);" rx="1"/>
<text x="268" y="105" style="font-family:sans-serif;font-size:10px;">
date:1
</text>
<rect x="474.0" y="64.0" width="30.0" height="15.0" style="fill:orange; stroke:rgb(0,0,0);" rx="1"/>
<text x="476" y="73" style="font-family:sans-serif;font-size:10px;">
city:1
</text>
<rect x="307.25" y="96.0" width="65.0" height="15.0" style="fill:orange; stroke:rgb(0,0,0);" rx="1"/>
<text x="309" y="105" style="font-family:sans-serif;font-size:10px;">
Return·Date:
</text>
<rect x="728.75" y="64.0" width="83.0" height="15.0" style="fill:orange; stroke:rgb(0,0,0);" rx="1"/>
<text x="730" y="73" style="font-family:sans-serif;font-size:10px;">
[Urlaub·machen]
</text>
<rect x="698.75" y="32.0" width="53.0" height="15.0" style="fill:orange; stroke:rgb(0,0,0);" rx="1"/>
<text x="700" y="41" style="font-family:sans-serif;font-size:10px;">
purpose:1
</text>
<rect x="336.0" y="64.0" width="64.0" height="15.0" style="fill:orange; stroke:rgb(0,0,0);" rx="1"/>
<text x="338" y="73" style="font-family:sans-serif;font-size:10px;">
returnDate:1
</text>
<rect x="0.0" y="64.0" width="48.0" height="15.0" style="fill:orange; stroke:rgb(0,0,0);" rx="1"/>
<text x="2" y="73" style="font-family:sans-serif;font-size:10px;">
Trip·Title:
</text>
<rect x="234.25" y="32.0" width="68.0" height="15.0" style="fill:orange; stroke:rgb(0,0,0);" rx="1"/>
<text x="236" y="41" style="font-family:sans-serif;font-size:10px;">
travelDates:1
</text>
<rect x="556.0" y="96.0" width="45.0" height="15.0" style="fill:orange; stroke:rgb(0,0,0);" rx="1"/>
<text x="558" y="105" style="font-family:sans-serif;font-size:10px;">
Country:
</text>
<rect x="381.25" y="128.0" width="24.0" height="15.0" style="fill:orange; stroke:rgb(0,0,0);" rx="1"/>
<text x="383" y="137" style="font-family:sans-serif;font-size:10px;">
-01-
</text>
<rect x="450.0" y="96.0" width="25.0" height="15.0" style="fill:orange; stroke:rgb(0,0,0);" rx="1"/>
<text x="452" y="105" style="font-family:sans-serif;font-size:10px;">
City:
</text>
<rect x="489.375" y="32.0" width="65.0" height="15.0" style="fill:orange; stroke:rgb(0,0,0);" rx="1"/>
<text x="491" y="41" style="font-family:sans-serif;font-size:10px;">
destination:1
</text>
<rect x="178.25" y="96.0" width="81.0" height="15.0" style="fill:orange; stroke:rgb(0,0,0);" rx="1"/>
<text x="180" y="105" style="font-family:sans-serif;font-size:10px;">
Departure·Date:
</text>
<rect x="55.0" y="64.0" width="72.0" height="15.0" style="fill:orange; stroke:rgb(0,0,0);" rx="1"/>
<text x="57" y="73" style="font-family:sans-serif;font-size:10px;">
[Strandurlaub]
</text>
<rect x="482.0" y="96.0" width="67.0" height="15.0" style="fill:orange; stroke:rgb(0,0,0);" rx="1"/>
<text x="484" y="105" style="font-family:sans-serif;font-size:10px;">
····[Koh·Tao]
</text>
<rect x="407.0" y="64.0" width="60.0" height="15.0" style="fill:orange; stroke:rgb(0,0,0);" rx="1"/>
<text x="409" y="73" style="font-family:sans-serif;font-size:10px;">
Destination:
</text>
<rect x="268.25" y="128.0" width="24.0" height="15.0" style="fill:orange; stroke:rgb(0,0,0);" rx="1"/>
<text x="270" y="137" style="font-family:sans-serif;font-size:10px;">
-12-
</text>
<rect x="34.0" y="32.0" width="47.0" height="15.0" style="fill:orange; stroke:rgb(0,0,0);" rx="1"/>
<text x="36" y="41" style="font-family:sans-serif;font-size:10px;">
tripTitle:1
</text>
<rect x="379.25" y="96.0" width="34.0" height="15.0" style="fill:orange; stroke:rgb(0,0,0);" rx="1"/>
<text x="381" y="105" style="font-family:sans-serif;font-size:10px;">
date:1
</text>
<rect x="245.25" y="128.0" width="16.0" height="15.0" style="fill:orange; stroke:rgb(0,0,0);" rx="1"/>
<text x="247" y="137" style="font-family:sans-serif;font-size:10px;">
01
</text>
<rect x="299.25" y="128.0" width="28.0" height="15.0" style="fill:orange; stroke:rgb(0,0,0);" rx="1"/>
<text x="301" y="137" style="font-family:sans-serif;font-size:10px;">
2023
</text>
<rect x="210.0" y="64.0" width="82.0" height="15.0" style="fill:orange; stroke:rgb(0,0,0);" rx="1"/>
<text x="212" y="73" style="font-family:sans-serif;font-size:10px;">
departureDate:1
</text>
<rect x="608.0" y="96.0" width="54.0" height="15.0" style="fill:orange; stroke:rgb(0,0,0);" rx="1"/>
<text x="610" y="105" style="font-family:sans-serif;font-size:10px;">
·[Thailand]
</text>
<rect x="358.25" y="128.0" width="16.0" height="15.0" style="fill:orange; stroke:rgb(0,0,0);" rx="1"/>
<text x="360" y="137" style="font-family:sans-serif;font-size:10px;">
31
</text>
</svg>