<svg width="1868.9" height="679.8000000000001" xmlns="http://www.w3.org/2000/svg" xmlns:xlink="http://www.w3.org/1999/xlink"><line x1="169.96875" y1="7.5" x2="150.21875" y2="32.0" style="stroke:black; stroke-width:1px;" />
<line x1="150.21875" y1="39.5" x2="69.75" y2="64.0" style="stroke:black; stroke-width:1px;" />
<line x1="69.75" y1="71.5" x2="38.5" y2="96.0" style="stroke:black; stroke-width:1px;" />
<line x1="69.75" y1="71.5" x2="101.0" y2="96.0" style="stroke:black; stroke-width:1px;" />
<line x1="150.21875" y1="39.5" x2="230.6875" y2="64.0" style="stroke:black; stroke-width:1px;" />
<line x1="230.6875" y1="71.5" x2="131.5" y2="96.0" style="stroke:black; stroke-width:1px;" />
<line x1="230.6875" y1="71.5" x2="164.5" y2="96.0" style="stroke:black; stroke-width:1px;" />
<line x1="164.5" y1="103.5" x2="129.25" y2="128.0" style="stroke:black; stroke-width:1px;" />
<line x1="164.5" y1="103.5" x2="199.75" y2="128.0" style="stroke:black; stroke-width:1px;" />
<line x1="230.6875" y1="71.5" x2="329.875" y2="96.0" style="stroke:black; stroke-width:1px;" />
<line x1="329.875" y1="103.5" x2="254.75" y2="128.0" style="stroke:black; stroke-width:1px;" />
<line x1="329.875" y1="103.5" x2="287.75" y2="128.0" style="stroke:black; stroke-width:1px;" />
<line x1="287.75" y1="135.5" x2="269.0" y2="160.0" style="stroke:black; stroke-width:1px;" />
<line x1="287.75" y1="135.5" x2="306.5" y2="160.0" style="stroke:black; stroke-width:1px;" />
<line x1="329.875" y1="103.5" x2="405.0" y2="128.0" style="stroke:black; stroke-width:1px;" />
<line x1="405.0" y1="135.5" x2="338.0" y2="160.0" style="stroke:black; stroke-width:1px;" />
<line x1="405.0" y1="135.5" x2="371.0" y2="160.0" style="stroke:black; stroke-width:1px;" />
<line x1="371.0" y1="167.5" x2="337.5" y2="192.0" style="stroke:black; stroke-width:1px;" />
<line x1="371.0" y1="167.5" x2="404.5" y2="192.0" style="stroke:black; stroke-width:1px;" />
<line x1="405.0" y1="135.5" x2="472.0" y2="160.0" style="stroke:black; stroke-width:1px;" />
<line x1="472.0" y1="167.5" x2="455.5" y2="192.0" style="stroke:black; stroke-width:1px;" />
<line x1="472.0" y1="167.5" x2="488.5" y2="192.0" style="stroke:black; stroke-width:1px;" />
<line x1="488.5" y1="199.5" x2="459.75" y2="224.0" style="stroke:black; stroke-width:1px;" />
<line x1="488.5" y1="199.5" x2="517.25" y2="224.0" style="stroke:black; stroke-width:1px;" />
<line x1="169.96875" y1="7.5" x2="189.71875" y2="32.0" style="stroke:black; stroke-width:1px;" />
<rect x="469.0" y="192.0" width="39.0" height="15.0" style="fill:orange; stroke:rgb(0,0,0);" rx="1"/>
<text x="471" y="201" style="font-family:sans-serif;font-size:10px;">
value:1
</text>
<rect x="84.0" y="96.0" width="34.0" height="15.0" style="fill:orange; stroke:rgb(0,0,0);" rx="1"/>
<text x="86" y="105" style="font-family:sans-serif;font-size:10px;">
1/3/23
</text>
<rect x="351.5" y="160.0" width="39.0" height="15.0" style="fill:orange; stroke:rgb(0,0,0);" rx="1"/>
<text x="353" y="169" style="font-family:sans-serif;font-size:10px;">
value:1
</text>
<rect x="205.6875" y="64.0" width="50.0" height="15.0" style="fill:orange; stroke:rgb(0,0,0);" rx="1"/>
<text x="207" y="73" style="font-family:sans-serif;font-size:10px;">
multiline:1
</text>
<rect x="145.0" y="96.0" width="39.0" height="15.0" style="fill:orange; stroke:rgb(0,0,0);" rx="1"/>
<text x="147" y="105" style="font-family:sans-serif;font-size:10px;">
value:1
</text>
<rect x="158.25" y="128.0" width="83.0" height="15.0" style="fill:orange; stroke:rgb(0,0,0);" rx="1"/>
<text x="160" y="137" style="font-family:sans-serif;font-size:10px;">
[Beach·Holiday.]
</text>
<rect x="380.0" y="128.0" width="50.0" height="15.0" style="fill:orange; stroke:rgb(0,0,0);" rx="1"/>
<text x="382" y="137" style="font-family:sans-serif;font-size:10px;">
multiline:1
</text>
<rect x="256.5" y="160.0" width="25.0" height="15.0" style="fill:orange; stroke:rgb(0,0,0);" rx="1"/>
<text x="258" y="169" style="font-family:sans-serif;font-size:10px;">
City:
</text>
<rect x="171.71875" y="32.0" width="36.0" height="15.0" style="fill:orange; stroke:rgb(0,0,0);" rx="1"/>
<text x="173" y="41" style="font-family:sans-serif;font-size:10px;">
&lt;EOF&gt;
</text>
<rect x="315.0" y="192.0" width="45.0" height="15.0" style="fill:orange; stroke:rgb(0,0,0);" rx="1"/>
<text x="317" y="201" style="font-family:sans-serif;font-size:10px;">
Country:
</text>
<rect x="304.875" y="96.0" width="50.0" height="15.0" style="fill:orange; stroke:rgb(0,0,0);" rx="1"/>
<text x="306" y="105" style="font-family:sans-serif;font-size:10px;">
multiline:1
</text>
<rect x="107.25" y="128.0" width="44.0" height="15.0" style="fill:orange; stroke:rgb(0,0,0);" rx="1"/>
<text x="109" y="137" style="font-family:sans-serif;font-size:10px;">
TripTitle:
</text>
<rect x="268.25" y="128.0" width="39.0" height="15.0" style="fill:orange; stroke:rgb(0,0,0);" rx="1"/>
<text x="270" y="137" style="font-family:sans-serif;font-size:10px;">
value:1
</text>
<rect x="367.0" y="192.0" width="75.0" height="15.0" style="fill:orange; stroke:rgb(0,0,0);" rx="1"/>
<text x="369" y="201" style="font-family:sans-serif;font-size:10px;">
[United·States]
</text>
<rect x="50.25" y="64.0" width="39.0" height="15.0" style="fill:orange; stroke:rgb(0,0,0);" rx="1"/>
<text x="52" y="73" style="font-family:sans-serif;font-size:10px;">
value:1
</text>
<rect x="497.25" y="224.0" width="40.0" height="15.0" style="fill:orange; stroke:rgb(0,0,0);" rx="1"/>
<text x="499" y="233" style="font-family:sans-serif;font-size:10px;">
3/04/23
</text>
<rect x="152.46875" y="0.0" width="35.0" height="15.0" style="fill:orange; stroke:rgb(0,0,0);" rx="1"/>
<text x="154" y="9" style="font-family:sans-serif;font-size:10px;">
start:1
</text>
<rect x="331.5" y="160.0" width="13.0" height="15.0" style="fill:orange; stroke:rgb(0,0,0);" rx="1"/>
<text x="333" y="169" style="font-family:sans-serif;font-size:10px;">
\n
</text>
<rect x="135.71875" y="32.0" width="29.0" height="15.0" style="fill:orange; stroke:rgb(0,0,0);" rx="1"/>
<text x="137" y="41" style="font-family:sans-serif;font-size:10px;">
line:1
</text>
<rect x="447.0" y="160.0" width="50.0" height="15.0" style="fill:orange; stroke:rgb(0,0,0);" rx="1"/>
<text x="449" y="169" style="font-family:sans-serif;font-size:10px;">
multiline:2
</text>
<rect x="429.25" y="224.0" width="61.0" height="15.0" style="fill:orange; stroke:rgb(0,0,0);" rx="1"/>
<text x="431" y="233" style="font-family:sans-serif;font-size:10px;">
ReturnDate:
</text>
<rect x="125.0" y="96.0" width="13.0" height="15.0" style="fill:orange; stroke:rgb(0,0,0);" rx="1"/>
<text x="127" y="105" style="font-family:sans-serif;font-size:10px;">
\n
</text>
<rect x="248.25" y="128.0" width="13.0" height="15.0" style="fill:orange; stroke:rgb(0,0,0);" rx="1"/>
<text x="250" y="137" style="font-family:sans-serif;font-size:10px;">
\n
</text>
<rect x="288.5" y="160.0" width="36.0" height="15.0" style="fill:orange; stroke:rgb(0,0,0);" rx="1"/>
<text x="290" y="169" style="font-family:sans-serif;font-size:10px;">
[Miami]
</text>
<rect x="0.0" y="96.0" width="77.0" height="15.0" style="fill:orange; stroke:rgb(0,0,0);" rx="1"/>
<text x="2" y="105" style="font-family:sans-serif;font-size:10px;">
DepartureDate:
</text>
<rect x="449.0" y="192.0" width="13.0" height="15.0" style="fill:orange; stroke:rgb(0,0,0);" rx="1"/>
<text x="451" y="201" style="font-family:sans-serif;font-size:10px;">
\n
</text>
</svg>